<svg width="320" height="370" viewBox="0 0 320 370" fill="none" xmlns="http://www.w3.org/2000/svg">
<path d="M288 0C309.333 0 320 10.6667 320 32V216C320 232 314.667 245.333 304 256L178 362C166 372.667 154 372.667 142 362L16 256C5.33333 245.333 0 232 0 216V32C0 10.6667 10.6667 0 32 0H288ZM166.656 57.2998C143.656 57.2998 125.156 64.2999 111.156 78.2998C97.3562 92.0998 90.4561 111.3 90.4561 135.9C90.4561 160.3 95.7565 178.8 106.356 191.4C116.956 203.8 131.957 210 151.356 210C156.556 210 163.457 209.2 172.057 207.6V216.6C172.057 224.4 166.556 228.3 155.557 228.3C140.357 228.3 126.056 225.4 112.656 219.6C108.456 225.6 106.356 235 106.356 247.8C106.356 251.6 107.356 255.9 109.356 260.7C124.156 265.5 140.956 267.9 159.756 267.9C178.556 267.9 193.956 263.9 205.956 255.9C217.956 248.1 223.956 236.8 223.956 222V72.5996C208.956 62.3998 189.856 57.2998 166.656 57.2998ZM165.156 106.2C167.356 106.2 169.657 106.5 172.057 107.1V164.1C169.457 164.7 166.457 165 163.057 165C159.657 165 156.256 163.7 152.856 161.1C147.657 157.3 145.057 149.1 145.057 136.5C145.057 116.3 151.756 106.2 165.156 106.2Z" fill="black"/>
</svg>
